
<svg xmlns="http://www.w3.org/2000/svg" viewBox="0 0 24 24"><path fill="#000000" d="M19.3,4.35c-2.2-2.35-5.73-2.3-7.85-.12a.5.5,0,0,1-.65,0C8.69,2.05,5.15,2,2.95,4.35c-2.43,2.6-2.5,6.77-.19,9.45.92,1.08,1.93,2.33,3.14,3.53,1.25,1.24,2.55,2.44,4.1,2.44s2.85-1.2,4.1-2.44c1.21-1.2,2.22-2.45,3.14-3.53,2.31-2.68,2.24-6.85-.19-9.45ZM12,1.55c.68,0,1.33.19,1.91.53,1-.6,2.25-1.08,3.53-1.08,1.06,0,2.1.33,2.94,1.09-1.26,1-2.21,2.34-2.5,3.95-.33-1.39-1.12-2.73-2.26-3.64A.5.5,0,0,0,14.5,2.1a4.85,4.85,0,0,0-2.5-1,4.85,4.85,0,0,0-2.5,1,.5.5,0,0,0-.17.37c-.63.95-1.35,2.1-1.74,3.28-1.55-.26-3-1.32-4-2.58.84-.76,1.88-1.09,2.94-1.09,1.28,0,2.53.48,3.53,1.08.58-.34,1.23-.53,1.91-.53Z"/></svg>
