
<svg xmlns="http://www.w3.org/2000/svg" viewBox="0 0 48 48"><path fill="#FFC107" d="M43.611 20.083H42V20H24v8h11.303c-1.649 4.657-6.08 8-11.303 8-6.627 0-12-5.373-12-12s5.373-12 12-12c3.059 0 5.842 1.154 7.961 3.039l5.657-5.657C34.046 6.053 29.268 4 24 4 12.955 4 4 12.955 4 24s8.955 20 20 20 20-8.955 20-20c0-1.341-.138-2.65-.389-3.917z"/><path fill="#FF3D00" d="M6.306 14.691c-1.336 2.607-2.063 5.532-2.063 8.657s.727 6.05 2.063 8.657l-5.657 5.657C.252 33.462 0 28.863 0 24s.252-9.462 2.649-13.309l5.657 3.991z"/><path fill="#4CAF50" d="M24 44c5.166 0 9.86-1.977 13.409-5.192l-5.657-5.657C30.046 35.154 27.268 36 24 36c-5.202 0-9.619-3.317-11.283-7.946l-5.657 5.657C9.043 40.023 15.955 44 24 44z"/><path fill="#1976D2" d="M43.611 20.083H42V20H24v8h11.303c-.792 2.237-2.231 4.166-4.087 5.571l5.657 5.657C40.046 35.154 44 30.863 44 24c0-1.341-.138-2.65-.389-3.917z"/></svg>
